<?xml version="1.0" standalone="no"?>
<!DOCTYPE svg PUBLIC "-//W3C//DTD SVG 20010904//EN"
 "http://www.w3.org/TR/2001/REC-SVG-20010904/DTD/svg10.dtd">
<svg version="1.0" xmlns="http://www.w3.org/2000/svg"
 width="194.000000pt" height="192.000000pt" viewBox="0 0 194.000000 192.000000"
 preserveAspectRatio="xMidYMid meet">
<metadata>
Created by potrace 1.16, written by Peter Selinger 2001-2019
</metadata>
<g transform="translate(0.000000,192.000000) scale(0.100000,-0.100000)"
fill="#000000" stroke="none">
<path d="M120 960 l0 -960 858 2 c471 2 856 6 855 11 -2 4 -3 435 -3 957 l0
950 -855 0 -855 0 0 -960z m1528 938 c9 -9 12 -227 12 -919 l0 -908 -22 -15
c-20 -14 -107 -16 -745 -16 -712 0 -723 0 -743 20 -20 20 -20 30 -18 926 3
791 5 906 18 914 24 15 1483 13 1498 -2z"/>
<path d="M195 1828 c-3 -13 -4 -405 -3 -873 l3 -850 320 -3 c176 -1 335 0 353
3 33 6 33 7 30 53 l-3 47 -80 6 c-190 13 -348 136 -474 367 -33 60 -41 85 -41
126 0 72 10 84 52 68 121 -49 115 -47 152 -29 41 19 70 59 62 84 -11 33 -50
69 -108 98 -96 48 -157 125 -158 198 0 41 45 122 82 149 29 20 44 23 133 23
l100 0 3 40 c6 67 20 75 138 75 57 0 105 4 108 8 3 5 -8 16 -25 26 -39 23 -59
65 -59 121 0 72 43 135 92 135 16 0 18 -13 18 -140 0 -77 2 -140 4 -140 3 0
25 14 50 31 51 34 71 80 60 140 -9 55 -25 77 -65 93 -44 18 -53 40 -44 105 6
45 5 49 -17 55 -13 3 -170 6 -350 6 l-328 0 -5 -22z"/>
<path d="M900 1380 c-1 -36 -1 -1079 -1 -1119 l1 -44 87 7 c124 9 210 53 318
161 102 102 175 233 175 313 0 28 -5 54 -10 57 -6 4 -35 -3 -66 -14 -30 -12
-64 -21 -75 -21 -56 0 -117 67 -103 113 10 36 55 76 119 109 74 37 82 43 111
90 33 51 33 132 2 178 -45 66 -68 75 -184 74 -99 -1 -104 0 -105 20 -1 34 -9
70 -17 77 -4 4 -62 9 -130 11 -103 2 -122 1 -122 -12z m268 -130 c6 -43 17
-47 96 -42 70 4 76 3 100 -21 14 -14 26 -37 26 -51 0 -36 -45 -83 -108 -113
-73 -34 -139 -100 -148 -148 -25 -133 66 -230 211 -223 35 1 67 0 70 -4 25
-25 -124 -121 -240 -154 -162 -47 -163 -48 -190 -30 l-25 16 0 378 c0 328 2
381 16 400 15 21 22 23 102 20 84 -3 87 -4 90 -28z"/>
<path d="M664 1262 c-13 -2 -23 -14 -30 -35 l-9 -32 -87 0 c-75 0 -89 -3 -102
-20 -36 -47 -7 -95 78 -135 62 -30 133 -95 152 -139 22 -50 13 -132 -20 -182
-38 -56 -93 -81 -179 -80 -68 1 -69 1 -56 -20 32 -48 299 -154 370 -147 l34 3
3 388 c2 334 0 388 -13 393 -16 7 -110 10 -141 6z"/>
</g>
</svg>
